<?xml version="1.0" standalone="yes"?>
<svg xmlns="http://www.w3.org/2000/svg" width="388" height="388">
<path style="fill:#fcfdfe; stroke:none;" d="M0 0L0 388L388 388L388 0L0 0z"/>
<path style="fill:#57ace0; stroke:none;" d="M27 5L28 6L27 5z"/>
<path style="fill:#3b719f; stroke:none;" d="M28.6667 5.33334L29.3333 5.66666L28.6667 5.33334z"/>
<path style="fill:#194f83; stroke:none;" d="M30 5.43982C-4.69639 11.0261 5 57.8048 5 83L5 288L5 338C5 348.811 4.09402 358.759 10.7886 367.996C18.6063 378.783 29.9289 379 42 379L96 379L270 379C296.984 379 328.508 383.53 355 378.532C385.435 372.791 379 335.649 379 313L379 138C379 117.941 385.248 85.2129 373.2 68C362.86 53.2282 346.74 40.7404 334 28C326.743 20.7434 319.66 11.6468 310 7.52856C301.075 3.72391 290.457 5 281 5L227 5L96 5C74.7206 5 51.0031 2.0582 30 5.43982z"/>
<path style="fill:#3b719f; stroke:none;" d="M302.667 5.33334L303.333 5.66666L302.667 5.33334z"/>
<path style="fill:#57ace0; stroke:none;" d="M304.667 5.33334L305.333 5.66666L304.667 5.33334M23 6L24 7L23 6z"/>
<path style="fill:#3b719f; stroke:none;" d="M24 6L25 7L24 6M307 6L308 7L307 6z"/>
<path style="fill:#57ace0; stroke:none;" d="M308 6L309 7L308 6M21 7L22 8L21 7z"/>
<path style="fill:#3b719f; stroke:none;" d="M22 7L23 8L22 7z"/>
<path style="fill:#57ace0; stroke:none;" d="M310 7L311 8L310 7z"/>
<path style="fill:#3b719f; stroke:none;" d="M20 8L21 9L20 8z"/>
<path style="fill:#57ace0; stroke:none;" d="M312 8L313 9L312 8M18 9L19 10L18 9z"/>
<path style="fill:#3b719f; stroke:none;" d="M313 9L314 10L313 9z"/>
<path style="fill:#57ace0; stroke:none;" d="M314 9L315 10L314 9z"/>
<path style="fill:#3b719f; stroke:none;" d="M315 10L316 11L315 10z"/>
<path style="fill:#57ace0; stroke:none;" d="M15 11L16 12L15 11M317 11L318 12L317 11z"/>
<path style="fill:#3b719f; stroke:none;" d="M14 12L15 13L14 12z"/>
<path style="fill:#57ace0; stroke:none;" d="M318 12L319 13L318 12z"/>
<path style="fill:#3b719f; stroke:none;" d="M13 13L14 14L13 13z"/>
<path style="fill:#57ace0; stroke:none;" d="M319 13L320 14L319 13z"/>
<path style="fill:#3b719f; stroke:none;" d="M12 14L13 15L12 14z"/>
<path style="fill:#57ace0; stroke:none;" d="M320 14L321 15L320 14z"/>
<path style="fill:#3b719f; stroke:none;" d="M11 15L12 16L11 15z"/>
<path style="fill:#57ace0; stroke:none;" d="M321 15L322 16L321 15M10 16L11 17L10 16M322 16L323 17L322 16M323 17L324 18L323 17M324 18L325 19L324 18M8 19L9 20L8 19M325 19L326 20L325 19M326 20L327 21L326 20z"/>
<path style="fill:#3b719f; stroke:none;" d="M7 21L8 22L7 21z"/>
<path style="fill:#57ace0; stroke:none;" d="M327 21L328 22L327 21M328 22L329 23L328 22M6 23L7 24L6 23M329 23L330 24L329 23M330 24L331 25L330 24M5.33333 25.6667L5.66667 26.3333L5.33333 25.6667z"/>
<path style="fill:#3b719f; stroke:none;" d="M33 25L33 26L296 26L296 80C300.507 69.2581 297 50.682 297 39C297 35.6845 298.351 28.3675 295.397 26.0278C291.706 23.1049 281.513 25 277 25L227 25L33 25z"/>
<path style="fill:#57ace0; stroke:none;" d="M331 25L332 26L331 25M30 26L31 27L30 26z"/>
<path style="fill:#fcfdfe; stroke:none;" d="M358 88L337 88L337 267L337 314C337 319.571 338.57 328.07 335.258 332.895C329.487 341.3 312.788 338 304 338L214 338L95 338C84.0211 338 59.9613 342.477 51.044 335.566C45.238 331.067 46 324.575 46 318L46 279L46 112L46 67C46 60.9224 44.8271 53.7534 50.1088 49.4337C54.9371 45.4847 63.1769 47 69 47L115 47L296 47L296 26L100 26L49 26C43.3719 26 33.998 24.232 29.2137 27.7423C23.4928 31.9398 25 40.8511 25 47L25 99L25 292L25 338C25 344.067 23.686 352.204 29.1335 356.436C34.2792 360.434 42.9186 359 49 359L97 359L283 359L336 359C342.252 359 351.947 360.563 356.258 354.775C359.784 350.041 358 340.592 358 335L358 284L358 88z"/>
<path style="fill:#57ace0; stroke:none;" d="M332 26L333 27L332 26z"/>
<path style="fill:#3b719f; stroke:none;" d="M28 27L29 28L28 27z"/>
<path style="fill:#57ace0; stroke:none;" d="M333 27L334 28L333 27z"/>
<path style="fill:#3b719f; stroke:none;" d="M27 28L28 29L27 28z"/>
<path style="fill:#57ace0; stroke:none;" d="M334 28L335 29L334 28M4.33333 29.6667L4.66667 30.3333L4.33333 29.6667z"/>
<path style="fill:#3b719f; stroke:none;" d="M26 29L27 30L26 29z"/>
<path style="fill:#57ace0; stroke:none;" d="M335 29L336 30L335 29M26 30L27 31L26 30M336 30L337 31L336 30z"/>
<path style="fill:#3b719f; stroke:none;" d="M4 31L4 352L5 352L5 125L5 60L4 31M25 31L26 32L25 31z"/>
<path style="fill:#57ace0; stroke:none;" d="M337 31L338 32L337 31M25 32L26 33L25 32M338 32L339 33L338 32M339 33L340 34L339 33M340 34L341 35L340 34M341 35L342 36L341 35M342 36L343 37L342 36M343 37L344 38L343 37M344 38L345 39L344 38M345 39L346 40L345 39z"/>
<path style="fill:#3b719f; stroke:none;" d="M316 40L316 67L317 67L317 41L344 67C337.637 57.9669 326.059 44.6906 316 40z"/>
<path style="fill:#57ace0; stroke:none;" d="M346 40L347 41L346 40z"/>
<path style="fill:#fcc010; stroke:none;" d="M317 41L317 67L343 67L317 41z"/>
<path style="fill:#57ace0; stroke:none;" d="M347 41L348 42L347 41M348 42L349 43L348 42M349 43L350 44L349 43M350 44L351 45L350 44M351 45L352 46L351 45M352 46L353 47L352 46M337 88C327.383 88 307.674 91.7462 300.214 84.7215C292.129 77.109 296 57.191 296 47L116 47L69 47C63.459 47 54.8934 45.4134 50.1088 48.7423C44.6554 52.5365 46 60.2438 46 66L46 112L46 275L46 317C46 322.382 44.7787 329.422 48.4336 333.891C52.5787 338.959 59.1501 338 65 338L105 338L273 338L319 338C324.773 338 332.501 338.873 335.821 332.895C338.795 327.541 337 317.96 337 312L337 264L337 88M353 47L354 48L353 47M354 48L355 49L354 48M355 49L356 50L355 49M356 50L357 51L356 50M357 51L358 52L357 51M358 52L359 53L358 52M359 53L360 54L359 53M360 54L361 55L360 54M361 55L362 56L361 55M362 56L363 57L362 56M363 57L364 58L363 57M364 58L365 59L364 58M365 59L366 60L365 59M366 60L367 61L366 60M367 61L368 62L367 61M368 62L369 63L368 62M369 63L370 64L369 63M370 64L371 65L370 64M371 65L372 66L371 65z"/>
<path style="fill:#3b719f; stroke:none;" d="M373 68L374 69L373 68z"/>
<path style="fill:#57ace0; stroke:none;" d="M374 69L375 70L374 69z"/>
<path style="fill:#3b719f; stroke:none;" d="M242 70L242 71L254 71L242 70M67 71L67 121L68 121L68 72L78 72L67 71M98 71L98 72L107 72L98 71M118 71L118 72L155 72C145.202 67.8887 128.649 71 118 71M160 71L160 72C163.987 72.0031 167.668 71.4024 170 75C171.158 69.8442 163.363 71.0004 160 71M186 72L186 73L199 72L186 72M215 71L215 72L225 72L215 71M239 71L240 72L239 71z"/>
<path style="fill:#194f83; stroke:none;" d="M238 104L228 105C229.406 109.944 230.634 114.913 235.094 118.03C245.54 125.33 266.678 122.841 268.443 108C270.845 87.7999 247.363 96.3172 240.971 85.037C238.927 81.4305 244.123 78.7746 247.001 78.4383C251.802 77.8772 255.097 81.0406 257 85L267 85C265.231 67.8361 234.065 64.3296 230.573 82C228.379 93.0967 239.449 97.382 248 99.6288C251.416 100.526 257.33 101.71 257.94 106.043C258.618 110.857 251.931 113.945 248.001 113.576C242.482 113.059 239.552 108.845 238 104z"/>
<path style="fill:#3b719f; stroke:none;" d="M257 71L258 72L257 71z"/>
<path style="fill:#57ace0; stroke:none;" d="M375 71L376 72L375 71z"/>
<path style="fill:#194f83; stroke:none;" d="M68 72L68 121L76 121L76 89C87.2933 99.9418 88.9263 120.998 107 121L107 72L98 72L98 104C89.1077 92.346 84.3583 72.0018 68 72M118 72L118 121L156 121L156 113L128 113L128 99L153 99L153 91L128 91L128 79L155 79L155 72L118 72M160 72L168.374 107L172.728 119.972L183 121L192 84L193 84L202.43 118.682L211.57 120.397L216.349 108L225 72L215 72L208 106L207 106L199 72C195.758 72 190.318 70.9927 187.564 73.0278C181.748 77.3255 179.61 97.9757 178 105L177 105L170 72L160 72z"/>
<path style="fill:#3b719f; stroke:none;" d="M237 72L238 73L237 72M259 72L260 73L259 72M78 73L79 74L78 73M160.333 73.6667L160.667 74.3333L160.333 73.6667M199.333 73.6667L199.667 74.3333L199.333 73.6667M235 73L236 74L235 73M261 73L262 74L261 73z"/>
<path style="fill:#57ace0; stroke:none;" d="M376 73L377 74L376 73z"/>
<path style="fill:#3b719f; stroke:none;" d="M214.333 74.6667L214.667 75.3333L214.333 74.6667M224.333 74.6667L224.667 75.3333L224.333 74.6667M234 74L235 75L234 74M262 74L263 75L262 74M376 74L377 75L376 74M185.333 75.6667L185.667 76.3333L185.333 75.6667M233 75L234 76L233 75M263 75L264 76L263 75M80 76L81 77L80 76M232 76L233 77L232 76M264 76L265 77L264 76z"/>
<path style="fill:#57ace0; stroke:none;" d="M377 76L378 77L377 76z"/>
<path style="fill:#3b719f; stroke:none;" d="M171.333 77.6667L171.667 78.3333L171.333 77.6667M200.333 77.6667L200.667 78.3333L200.333 77.6667M81 78L82 79L81 78M161.333 78.6667L161.667 79.3333L161.333 78.6667M213.333 78.6667L213.667 79.3333L213.333 78.6667M223.333 78.6667L223.667 79.3333L223.333 78.6667M231 78L232 79L231 78M245 78L245 79L251 79L245 78M265 78L266 79L265 78M82 79L83 80L82 79M128 79L128 80L155 80L128 79M184.333 79.6667L184.667 80.3333L184.333 79.6667M242.667 79.3333L243.333 79.6667L242.667 79.3333M253 79L254 80L253 79M266.333 79.6667L266.667 80.3333L266.333 79.6667z"/>
<path style="fill:#57ace0; stroke:none;" d="M378.333 79.6667L378.667 80.3333L378.333 79.6667z"/>
<path style="fill:#3b719f; stroke:none;" d="M230.333 80.6667L230.667 81.3333L230.333 80.6667M83 81L84 82L83 81M172 81L172 84L173 84L172 81M201.333 81.6667L201.667 82.3333L201.333 81.6667M378 81L379 82L378 81M162.333 82.6667L162.667 83.3333L162.333 82.6667M222.333 82.6667L222.667 83.3333L222.333 82.6667M256 82L257 83L256 82M183.333 83.6667L183.667 84.3333L183.333 83.6667M212.333 83.6667L212.667 84.3333L212.333 83.6667M239 83L240 84L239 83M298 83L299 84L298 83M85 84L86 85L85 84M192 84L193 85L192 84M267 84L268 85L267 84M202.333 85.6667L202.667 86.3333L202.333 85.6667M257 85L257 86L267 86L257 85M86 86L87 87L86 86M163.333 86.6667L163.667 87.3333L163.333 86.6667M173.333 86.6667L173.667 87.3333L173.333 86.6667M182.333 86.6667L182.667 87.3333L182.333 86.6667M193.333 86.6667L193.667 87.3333L193.333 86.6667M221.333 86.6667L221.667 87.3333L221.333 86.6667M230 86L230 89L231 89L230 86M301 86L302 87L301 86M191.333 87.6667L191.667 88.3333L191.333 87.6667M211 87L211 90L212 90L211 87M242 87L243 88L242 87M304.667 87.3333L305.333 87.6667L304.667 87.3333M245 88L246 89L245 88z"/>
<path style="fill:#57ace0; stroke:none;" d="M358 88L358 350L359 350L359 165L359 112L358 88z"/>
<path style="fill:#3b719f; stroke:none;" d="M76 89L76 121L77 121L78 89L76 89M88 89L89 90L88 89M203.333 89.6667L203.667 90.3333L203.333 89.6667M248.667 89.3333L249.333 89.6667L248.667 89.3333M164.333 90.6667L164.667 91.3333L164.333 90.6667M174 90L174 93L175 93L174 90M181.333 90.6667L181.667 91.3333L181.333 90.6667M194.333 90.6667L194.667 91.3333L194.333 90.6667M220.333 90.6667L220.667 91.3333L220.333 90.6667M231 90L232 91L231 90M252.667 90.3333L253.333 90.6667L252.667 90.3333M78 91L79 92L78 91M89 91L90 92L89 91M190 91L191 92L190 91M256 91L257 92L256 91M90 92L91 93L90 92M210.333 92.6667L210.667 93.3333L210.333 92.6667M259 92L260 93L259 92M204.333 93.6667L204.667 94.3333L204.333 93.6667M261 93L262 94L261 93M80 94L81 95L80 94M91 94L92 95L91 94M165.333 94.6667L165.667 95.3333L165.333 94.6667M180.333 94.6667L180.667 95.3333L180.333 94.6667M189.333 94.6667L189.667 95.3333L189.333 94.6667M195 94L196 95L195 94M219.333 94.6667L219.667 95.3333L219.333 94.6667M175.333 95.6667L175.667 96.3333L175.333 95.6667M236 95L237 96L236 95M264 95L265 96L264 95M81 96L82 97L81 96M209 96L209 99L210 99L209 96M238 96L239 97L238 96M265 96L266 97L265 96M82 97L83 98L82 97M93 97L94 98L93 97M196.333 97.6667L196.667 98.3333L196.333 97.6667M205.333 97.6667L205.667 98.3333L205.333 97.6667M240 97L241 98L240 97M166.333 98.6667L166.667 99.3333L166.333 98.6667M179.333 98.6667L179.667 99.3333L179.333 98.6667M188.333 98.6667L188.667 99.3333L188.333 98.6667M218.333 98.6667L218.667 99.3333L218.333 98.6667M243 98L244 99L243 98M83 99L84 100L83 99M94 99L95 100L94 99M246.667 99.3333L247.333 99.6667L246.667 99.3333M267 99L268 100L267 99M176.333 100.667L176.667 101.333L176.333 100.667M250.667 100.333L251.333 100.667L250.667 100.333M178.333 101.667L178.667 102.333L178.333 101.667M197.333 101.667L197.667 102.333L197.333 101.667M206.333 101.667L206.667 102.333L206.333 101.667M208.333 101.667L208.667 102.333L208.333 101.667M253.667 101.333L254.333 101.667L253.667 101.333M85 102L86 103L85 102M96 102L97 103L96 102M187.333 102.667L187.667 103.333L187.333 102.667M217.333 102.667L217.667 103.333L217.333 102.667M256 102L257 103L256 102M268 102L268 105L269 105L268 102M97 103L98 104L97 103M167.333 103.667L167.667 104.333L167.333 103.667M257 103L258 104L257 103M86 104L87 105L86 104M177 104L178 105L177 104M231 104L231 105L236 105L231 104M87 105L88 106L87 105M198.333 105.667L198.667 106.333L198.333 105.667M207 105L208 106L207 105M258 105L259 106L258 105M186.333 106.667L186.667 107.333L186.333 106.667M228.333 106.667L228.667 107.333L228.333 106.667M238 106L239 107L238 106M88 107L89 108L88 107M168.333 107.667L168.667 108.333L168.333 107.667M216.333 107.667L216.667 108.333L216.333 107.667M258.333 107.667L258.667 108.333L258.333 107.667M239 108L240 109L239 108M268 108L268 111L269 111L268 108M185.333 109.667L185.667 110.333L185.333 109.667M199.333 109.667L199.667 110.333L199.333 109.667M90 110L91 111L90 110M229 110L230 111L229 110M169.333 111.667L169.667 112.333L169.333 111.667M215.333 111.667L215.667 112.333L215.333 111.667M241 111L242 112L241 111M91 112L92 113L91 112M200.333 112.667L200.667 113.333L200.333 112.667M243 112L244 113L243 112M254 112L255 113L254 112M267 112L268 113L267 112M184.333 113.667L184.667 114.333L184.333 113.667M246 113L246 114L252 114L246 113M231 114L232 115L231 114M266 114L267 115L266 114M93 115L94 116L93 115M170.333 115.667L170.667 116.333L170.333 115.667M214.333 115.667L214.667 116.333L214.333 115.667M201.333 116.667L201.667 117.333L201.333 116.667M94 117L95 118L94 117M183.333 117.667L183.667 118.333L183.333 117.667M95 118L96 119L95 118M235 118L236 119L235 118M262 118L263 119L262 118M171.333 119.667L171.667 120.333L171.333 119.667M213.333 119.667L213.667 120.333L213.333 119.667M237 119L238 120L237 119M260 119L261 120L260 119M96 120L97 121L96 120M202 120L203 121L202 120M239 120L240 121L239 120M258 120L259 121L258 120M242 121L242 122L246 122L242 121M253 121L253 122L256 122L253 121M123 143L123 144L130 144L123 143M219 143L219 144L312 144L283 143L219 143M117.667 144.333L118.333 144.667L117.667 144.333z"/>
<path style="fill:#194f83; stroke:none;" d="M119 144.465C70.6572 153.181 86.039 228.009 134 218.905C182.328 209.732 167.062 135.799 119 144.465z"/>
<path style="fill:#3b719f; stroke:none;" d="M134.667 144.333L135.333 144.667L134.667 144.333M216 144L217 145L216 144z"/>
<path style="fill:#194f83; stroke:none;" d="M217.019 144.742C208.613 148.082 209.793 160.69 218.015 163.347C225.05 165.621 234.658 164 242 164L291 164C298.021 164 309.803 166.221 315.891 162.142C323.122 157.297 320.298 145.744 312 144.228C291.105 140.413 266.266 144 245 144C236.869 144 224.63 141.718 217.019 144.742z"/>
<path style="fill:#3b719f; stroke:none;" d="M314 144L315 145L314 144M114 145L115 146L114 145M138 145L139 146L138 145M316 145L317 146L316 145M111 146L112 147L111 146M141 146L142 147L141 146M213 146L214 147L213 146M317 146L318 147L317 146M109 147L110 148L109 147M143 147L144 148L143 147M318 147L319 148L318 147M107 148L108 149L107 148M145 148L146 149L145 148M211.333 149.667L211.667 150.333L211.333 149.667M104 150L105 151L104 150M148 150L149 151L148 150M103 151L104 152L103 151M149 151L150 152L149 151M320 151L320 157L321 157L320 151M210 153L211 154L210 153M211 157L212 158L211 157M96 158L97 159L96 158M156 158L157 159L156 158M319 158L320 159L319 158M95 159L96 160L95 159M157 159L158 160L157 159M212 159L213 160L212 159M94 160L95 161L94 160M317 161L318 162L317 161M93 162L94 163L93 162M159 162L160 163L159 162M215 162L216 163L215 162M217 163L218 164L217 163M313 163L314 164L313 163M92 164L93 165L92 164M122 164L122 165L125 165L122 164z"/>
<path style="fill:#57ace0; stroke:none;" d="M125 164L125 165L129 165L125 164z"/>
<path style="fill:#3b719f; stroke:none;" d="M129.667 164.333L130.333 164.667L129.667 164.333M160 164L161 165L160 164M119 165L120 166L119 165z"/>
<path style="fill:#57ace0; stroke:none;" d="M120 165L121 166L120 165z"/>
<path style="fill:#fcc010; stroke:none;" d="M121.001 165.649C100.531 171.853 110.452 204.117 131 198.211C152.899 191.916 142.987 158.985 121.001 165.649z"/>
<path style="fill:#57ace0; stroke:none;" d="M132 165L133 166L132 165z"/>
<path style="fill:#3b719f; stroke:none;" d="M133 165L134 166L133 165M91 166L92 167L91 166z"/>
<path style="fill:#57ace0; stroke:none;" d="M118 166L119 167L118 166z"/>
<path style="fill:#3b719f; stroke:none;" d="M135 166L136 167L135 166M161 166L162 167L161 166M116 167L117 168L116 167M136 167L137 168L136 167M90.3333 168.667L90.6667 169.333L90.3333 168.667z"/>
<path style="fill:#57ace0; stroke:none;" d="M115 168L116 169L115 168z"/>
<path style="fill:#3b719f; stroke:none;" d="M162.333 168.667L162.667 169.333L162.333 168.667z"/>
<path style="fill:#57ace0; stroke:none;" d="M113 170L114 171L113 170z"/>
<path style="fill:#3b719f; stroke:none;" d="M89.3333 171.667L89.6667 172.333L89.3333 171.667M112 171L113 172L112 171M140 171L141 172L140 171M141 172L142 173L141 172M163.333 172.667L163.667 173.333L163.333 172.667M110 174L111 175L110 174M142 174L143 175L142 174z"/>
<path style="fill:#57ace0; stroke:none;" d="M110 175L111 176L110 175z"/>
<path style="fill:#3b719f; stroke:none;" d="M88 176L88 187L89 187L88 176M109.333 177.667L109.667 178.333L109.333 177.667M143 177L144 178L143 177M164 177L164 187L165 187L164 177z"/>
<path style="fill:#57ace0; stroke:none;" d="M143.333 178.667L143.667 179.333L143.333 178.667M109 179L110 180L109 179M109 183L110 184L109 183z"/>
<path style="fill:#3b719f; stroke:none;" d="M109.333 184.667L109.667 185.333L109.333 184.667z"/>
<path style="fill:#57ace0; stroke:none;" d="M143 184L144 185L143 184z"/>
<path style="fill:#3b719f; stroke:none;" d="M143.333 185.667L143.667 186.333L143.333 185.667M110 188L111 189L110 188M142 188L143 189L142 188M89.3333 190.667L89.6667 191.333L89.3333 190.667M111 190L112 191L111 190M141 190L142 191L141 190M163.333 190.667L163.667 191.333L163.333 190.667M90.3333 193.667L90.6667 194.333L90.3333 193.667M113 193L114 194L113 193M139 193L140 194L139 193M114 194L115 195L114 194M138 194L139 195L138 194M162 194L163 195L162 194M91 196L92 197L91 196M117 196L118 197L117 196z"/>
<path style="fill:#57ace0; stroke:none;" d="M135 196L136 197L135 196M119 197L120 198L119 197M133 197L134 198L133 197z"/>
<path style="fill:#3b719f; stroke:none;" d="M161 197L162 198L161 197M218 197L218 198L313 198L284 197L218 197M121.667 198.333L122.333 198.667L121.667 198.333M130.667 198.333L131.333 198.667L130.667 198.333M216 198L217 199L216 198z"/>
<path style="fill:#194f83; stroke:none;" d="M217.015 198.742C208.531 202.088 209.721 214.667 218.015 217.347C225.05 219.621 234.658 218 242 218L291 218C298.021 218 309.803 220.221 315.891 216.142C322.469 211.735 321.005 199.983 312.985 198.279C292.247 193.87 266.236 198 245 198C236.851 198 224.651 195.731 217.015 198.742z"/>
<path style="fill:#3b719f; stroke:none;" d="M315 198L316 199L315 198M92 199L93 200L92 199M160 199L161 200L160 199M214 199L215 200L214 199M316 199L317 200L316 199M93 200L94 201L93 200M213 200L214 201L213 200M212 201L213 202L212 201M318 201L319 202L318 201M94 202L95 203L94 202M158 202L159 203L158 202M319 202L320 203L319 202M211 203L212 204L211 203M96 205L97 206L96 205M156 205L157 206L156 205M320 205L320 211L321 211L320 205M97 206L98 207L97 206M155 206L156 207L155 206M98 207L99 208L98 207M154 207L155 208L154 207M210 207L211 208L210 207M99 208L100 209L99 208M153 208L154 209L153 208M100 209L101 210L100 209M152 209L153 210L152 209M101 210L102 211L101 210M151 210L152 211L151 210M102 211L103 212L102 211M150 211L151 212L150 211M211 211L212 212L211 211M319 212L320 213L319 212M105 213L106 214L105 213M147 213L148 214L147 213M212 213L213 214L212 213M108 215L109 216L108 215M144 215L145 216L144 215M110 216L111 217L110 216M142 216L143 217L142 216M215 216L216 217L215 216M112.667 217.333L113.333 217.667L112.667 217.333M139 217L140 218L139 217M217 217L218 218L217 217M313 217L314 218L313 217M115.667 218.333L116.333 218.667L115.667 218.333M136.667 218.333L137.333 218.667L136.667 218.333M119 219L119 220L123 220L119 219M130 219L130 220L134 220L130 219M106 229L106 230L110 230L106 229M143 229L143 230L146 230L143 229M102.667 230.333L103.333 230.667L102.667 230.333z"/>
<path style="fill:#194f83; stroke:none;" d="M127 260C122.794 252.103 121.329 235.634 112.956 231.179C105.561 227.245 92.9609 233.123 86 236.012C57.0686 248.016 58 269.592 58 297C58 304.513 55.4898 317.621 60.6528 323.772C64.4644 328.312 71.7252 327 77 327L119 327L170 327C175.952 327 185.67 328.804 190.775 325.142C195.961 321.422 195 313.551 195 308C195 292.904 197.765 274.501 192.895 260C187.591 244.207 172.014 236.73 157 232.427C151.939 230.977 145.083 228.507 140.043 231.179C132.346 235.26 128.834 252.071 127 260z"/>
<path style="fill:#3b719f; stroke:none;" d="M112 230L113 231L112 230M140 230L141 231L140 230M149.667 230.333L150.333 230.667L149.667 230.333M98.6667 231.333L99.3333 231.667L98.6667 231.333M114 231L115 232L114 231M138 231L139 232L138 231M153.667 231.333L154.333 231.667L153.667 231.333M95 232L96 233L95 232M115 232L116 233L115 232M137 232L138 233L137 232M157 232L158 233L157 232M92 233L93 234L92 233M116 233L117 234L116 233M136 233L137 234L136 233M160 233L161 234L160 233M89 234L90 235L89 234M163 234L164 235L163 234M86.6667 235.333L87.3333 235.667L86.6667 235.333M117 235L118 236L117 235M135 235L136 236L135 235M165 235L166 236L165 235M84 236L85 237L84 236M168 236L169 237L168 236M82 237L83 238L82 237M118.333 237.667L118.667 238.333L118.333 237.667M134 237L135 238L134 237M170 237L171 238L170 237M80 238L81 239L80 238M172 238L173 239L172 238M78 239L79 240L78 239M174 239L175 240L174 239M76 240L77 241L76 240M119 240L120 241L119 240M133 240L134 241L133 240M176 240L177 241L176 240M74 241L75 242L74 241M178 241L179 242L178 241M72 242L73 243L72 242M132.333 242.667L132.667 243.333L132.333 242.667M71 243L72 244L71 243M120 243L121 244L120 243M181 243L182 244L181 243M70 244L71 245L70 244M182 244L183 245L182 244M131.333 245.667L131.667 246.333L131.333 245.667M183 245L184 246L183 245M121 246L122 247L121 246M185 247L186 248L185 247M122.333 248.667L122.667 249.333L122.333 248.667M130 248L131 249L130 248M186 248L187 249L186 248M65 249L66 250L65 249M187 249L188 250L187 249M64 250L65 251L64 250M123.333 251.667L123.667 252.333L123.333 251.667M129 251L130 252L129 251M217.667 251.333L218.333 251.667L217.667 251.333z"/>
<path style="fill:#194f83; stroke:none;" d="M219.001 251.573C208.797 254.515 208.797 268.485 219.001 271.427C225.914 273.421 234.847 272 242 272L289 272C296.633 272 307.952 274.063 314.906 270.427C324.722 265.296 319.453 252.382 310 251.185C290.624 248.732 269.539 251 250 251C240.488 251 228.17 248.928 219.001 251.573z"/>
<path style="fill:#3b719f; stroke:none;" d="M312.667 251.333L313.333 251.667L312.667 251.333M63 252L64 253L63 252M100.667 252.333L101.333 252.667L100.667 252.333M151.667 252.333L152.333 252.667L151.667 252.333M189 252L190 253L189 252M215 252L216 253L215 252M315 252L316 253L315 252M62 253L63 254L62 253M97 253L98 254L97 253z"/>
<path style="fill:#fcc010; stroke:none;" d="M79 307L174 307C174 295.236 178.491 271.604 170.581 262.105C167.836 258.809 155.157 250.399 151.086 254.619C144.434 261.513 141.429 279.888 138.333 289C136.357 294.813 133.182 301.201 126 300.847C118.855 300.496 116.287 293.777 114.333 288C111.341 279.156 108.365 261.305 101.914 254.619C97.8242 250.38 85.182 258.841 82.3943 262.105C74.4616 271.392 79 295.34 79 307z"/>
<path style="fill:#3b719f; stroke:none;" d="M155 253L156 254L155 253M214 253L215 254L214 253M94 254L95 255L94 254z"/>
<path style="fill:#57ace0; stroke:none;" d="M95 254L96 255L95 254z"/>
<path style="fill:#3b719f; stroke:none;" d="M102 254L103 255L102 254M124 254L125 255L124 254M128 254L129 255L128 254M150 254L151 255L150 254z"/>
<path style="fill:#57ace0; stroke:none;" d="M157 254L158 255L157 254z"/>
<path style="fill:#3b719f; stroke:none;" d="M158 254L159 255L158 254M190 254L191 255L190 254M213 254L214 255L213 254M61 255L62 256L61 255M92 255L93 256L92 255M160 255L161 256L160 255M212 255L213 256L212 255M90 256L91 257L90 256M127.333 256.667L127.667 257.333L127.333 256.667M162 256L163 257L162 256M191 256L192 257L191 256M319 256L320 257L319 256M60.3333 257.667L60.6667 258.333L60.3333 257.667M88 257L89 258L88 257M103 257L104 258L103 257M125 257L126 258L125 257M149 257L150 258L149 257M164 257L165 258L164 257M211 257L212 258L211 257M86 258L87 259L86 258M166 258L167 259L166 258M192 258L193 259L192 258M320 258L320 264L321 264L320 258M84 259L85 260L84 259M104.333 259.667L104.667 260.333L104.333 259.667M126 259L127 260L126 259M168 259L169 260L168 259M59.3333 260.667L59.6667 261.333L59.3333 260.667M83 260L84 261L83 260M148 260L149 261L148 260M169 260L170 261L169 260M82 261L83 262L82 261M170 261L171 262L170 261M193 261L194 262L193 261M210 261L211 262L210 261M81 262L82 263L81 262M105 262L106 263L105 262M147.333 262.667L147.667 263.333L147.333 262.667M171 262L172 263L171 262z"/>
<path style="fill:#57ace0; stroke:none;" d="M105 263L106 264L105 263z"/>
<path style="fill:#3b719f; stroke:none;" d="M58.3333 264.667L58.6667 265.333L58.3333 264.667z"/>
<path style="fill:#57ace0; stroke:none;" d="M80 264L81 265L80 264M172 264L173 265L172 264z"/>
<path style="fill:#3b719f; stroke:none;" d="M106 265L107 266L106 265M146 265L147 266L146 265M194 265L194 269L195 269L194 265M211 265L212 266L211 265M79 266L80 267L79 266z"/>
<path style="fill:#57ace0; stroke:none;" d="M106 266L107 267L106 266M146 266L147 267L146 266z"/>
<path style="fill:#3b719f; stroke:none;" d="M173 266L174 267L173 266M319 266L320 267L319 266z"/>
<path style="fill:#57ace0; stroke:none;" d="M173 267L174 268L173 267z"/>
<path style="fill:#3b719f; stroke:none;" d="M212 267L213 268L212 267M318 267L319 268L318 267M107 268L108 269L107 268M145 268L146 269L145 268M213 268L214 269L213 268M78 269L78 307L79 307C79 296.089 82.2113 279.036 78 269M214 269L215 270L214 269M174 270L174 307L175 307C175 296.351 178.111 279.798 174 270M215 270L216 271L215 270M315 270L316 271L315 270M108 271L109 272L108 271M144 271L145 272L144 271M218 271L219 272L218 271M312.667 271.333L313.333 271.667L312.667 271.333M109.333 273.667L109.667 274.333L109.333 273.667M143 274L144 275L143 274M110 276L111 277L110 276M142.333 276.667L142.667 277.333L142.333 276.667z"/>
<path style="fill:#57ace0; stroke:none;" d="M110 277L111 278L110 277z"/>
<path style="fill:#3b719f; stroke:none;" d="M111 279L112 280L111 279M141 279L142 280L141 279z"/>
<path style="fill:#57ace0; stroke:none;" d="M111 280L112 281L111 280M141 280L142 281L141 280z"/>
<path style="fill:#3b719f; stroke:none;" d="M112 282L113 283L112 282M140 282L141 283L140 282M113 285L114 286L113 285M139 285L140 286L139 285M114.333 287.667L114.667 288.333L114.333 287.667M138 288L139 289L138 288M115 290L116 291L115 290M137.333 290.667L137.667 291.333L137.333 290.667z"/>
<path style="fill:#57ace0; stroke:none;" d="M115 291L116 292L115 291z"/>
<path style="fill:#3b719f; stroke:none;" d="M116 293L117 294L116 293M136 293L137 294L136 293z"/>
<path style="fill:#57ace0; stroke:none;" d="M116 294L117 295L116 294M136 294L137 295L136 294M117 296L118 297L117 296M135 296L136 297L135 296z"/>
<path style="fill:#3b719f; stroke:none;" d="M118 297L119 298L118 297M134 297L135 298L134 297M119 298L120 299L119 298M133 298L134 299L133 298M120 299L121 300L120 299M132 299L133 300L132 299M122 300L123 301L122 300M130 300L131 301L130 300M217.667 305.333L218.333 305.667L217.667 305.333z"/>
<path style="fill:#194f83; stroke:none;" d="M219.001 305.573C208.797 308.515 208.797 322.485 219.001 325.427C225.914 327.421 234.847 326 242 326L289 326C296.633 326 307.952 328.063 314.906 324.427C324.722 319.296 319.453 306.382 310 305.185C290.624 302.732 269.539 305 250 305C240.488 305 228.17 302.928 219.001 305.573z"/>
<path style="fill:#3b719f; stroke:none;" d="M312.667 305.333L313.333 305.667L312.667 305.333M215 306L216 307L215 306M315 306L316 307L315 306M214 307L215 308L214 307M213 308L214 309L213 308M212 309L213 310L212 309M319 310L320 311L319 310M211 311L212 312L211 311M320 312L320 318L321 318L320 312M210 315L211 316L210 315M194.333 319.667L194.667 320.333L194.333 319.667M211 319L212 320L211 319M58 320L59 321L58 320M319 320L320 321L319 320M212 321L213 322L212 321M318 321L319 322L318 321M59 322L60 323L59 322M193 322L194 323L193 322M213 322L214 323L213 322M214 323L215 324L214 323M215 324L216 325L215 324M315 324L316 325L315 324M218 325L219 326L218 325M312.667 325.333L313.333 325.667L312.667 325.333M63 326L64 327L63 326M188.667 326.333L189.333 326.667L188.667 326.333M66 327L66 328L187 328C177.211 323.892 160.634 327 150 327L66 327M358 350L359 351L358 350z"/>
<path style="fill:#57ace0; stroke:none;" d="M25 351L26 352L25 351M4 352L4 355L5 355L4 352z"/>
<path style="fill:#3b719f; stroke:none;" d="M25 352L26 353L25 352z"/>
<path style="fill:#57ace0; stroke:none;" d="M357 353L358 354L357 353M26 354L27 355L26 354z"/>
<path style="fill:#3b719f; stroke:none;" d="M378 354L379 355L378 354z"/>
<path style="fill:#57ace0; stroke:none;" d="M27 355L28 356L27 355z"/>
<path style="fill:#3b719f; stroke:none;" d="M356 355L357 356L356 355z"/>
<path style="fill:#57ace0; stroke:none;" d="M378.333 355.667L378.667 356.333L378.333 355.667M28 356L29 357L28 356z"/>
<path style="fill:#3b719f; stroke:none;" d="M355 356L356 357L355 356M5 357L6 358L5 357M29 357L30 358L29 357z"/>
<path style="fill:#57ace0; stroke:none;" d="M353 357L354 358L353 357M5 358L6 359L5 358z"/>
<path style="fill:#3b719f; stroke:none;" d="M31 358L32 359L31 358z"/>
<path style="fill:#57ace0; stroke:none;" d="M32.6667 358.333L33.3333 358.667L32.6667 358.333M350 358L351 359L350 358z"/>
<path style="fill:#3b719f; stroke:none;" d="M351 358L352 359L351 358M377 358L378 359L377 358z"/>
<path style="fill:#57ace0; stroke:none;" d="M377 359L378 360L377 359z"/>
<path style="fill:#3b719f; stroke:none;" d="M6 360L7 361L6 360z"/>
<path style="fill:#57ace0; stroke:none;" d="M6 361L7 362L6 361z"/>
<path style="fill:#3b719f; stroke:none;" d="M376 361L377 362L376 361M7 362L8 363L7 362z"/>
<path style="fill:#57ace0; stroke:none;" d="M7 363L8 364L7 363z"/>
<path style="fill:#3b719f; stroke:none;" d="M375 363L376 364L375 363M8 364L9 365L8 364z"/>
<path style="fill:#57ace0; stroke:none;" d="M374 365L375 366L374 365M9 366L10 367L9 366z"/>
<path style="fill:#3b719f; stroke:none;" d="M373 366L374 367L373 366M10 367L11 368L10 367z"/>
<path style="fill:#57ace0; stroke:none;" d="M372 368L373 369L372 368M371 369L372 370L371 369M12 370L13 371L12 370M370 370L371 371L370 370M13 371L14 372L13 371M369 371L370 372L369 371M14 372L15 373L14 372M368 372L369 373L368 372z"/>
<path style="fill:#3b719f; stroke:none;" d="M17 374L18 375L17 374M365 374L366 375L365 374z"/>
<path style="fill:#57ace0; stroke:none;" d="M18 375L19 376L18 375z"/>
<path style="fill:#3b719f; stroke:none;" d="M363 375L364 376L363 375z"/>
<path style="fill:#57ace0; stroke:none;" d="M364 375L365 376L364 375M20 376L21 377L20 376z"/>
<path style="fill:#3b719f; stroke:none;" d="M361 376L362 377L361 376z"/>
<path style="fill:#57ace0; stroke:none;" d="M362 376L363 377L362 376M22 377L23 378L22 377z"/>
<path style="fill:#3b719f; stroke:none;" d="M23 377L24 378L23 377M359 377L360 378L359 377z"/>
<path style="fill:#57ace0; stroke:none;" d="M360 377L361 378L360 377M25 378L26 379L25 378z"/>
<path style="fill:#3b719f; stroke:none;" d="M26 378L27 379L26 378M355 378L356 379L355 378z"/>
<path style="fill:#57ace0; stroke:none;" d="M356.667 378.333L357.333 378.667L356.667 378.333M29 379L29 380L33 380L29 379z"/>
<path style="fill:#3b719f; stroke:none;" d="M33 379L33 380L350 380L321 379L257 379L33 379z"/>
<path style="fill:#57ace0; stroke:none;" d="M350 379L350 380L353 380L350 379z"/>
</svg>
